<?xml version="1.0" encoding="UTF-8" standalone="no"?>
<!-- Created with Inkscape (http://www.inkscape.org/) -->

<svg
   width="512"
   height="135"
   viewBox="0 0 135.46666 35.718749"
   version="1.1"
   id="svg1"
   xml:space="preserve"
   inkscape:version="1.3.2 (091e20e, 2023-11-25, custom)"
   sodipodi:docname="corps_tools_full.svg"
   inkscape:export-filename="corps_tools_full.png"
   inkscape:export-xdpi="200"
   inkscape:export-ydpi="200"
   xmlns:inkscape="http://www.inkscape.org/namespaces/inkscape"
   xmlns:sodipodi="http://sodipodi.sourceforge.net/DTD/sodipodi-0.dtd"
   xmlns="http://www.w3.org/2000/svg"
   xmlns:svg="http://www.w3.org/2000/svg"><sodipodi:namedview
     id="namedview1"
     pagecolor="#505050"
     bordercolor="#eeeeee"
     borderopacity="1"
     inkscape:showpageshadow="0"
     inkscape:pageopacity="0"
     inkscape:pagecheckerboard="0"
     inkscape:deskcolor="#505050"
     inkscape:document-units="mm"
     inkscape:lockguides="false"
     inkscape:zoom="1.1515087"
     inkscape:cx="178.46153"
     inkscape:cy="58.184537"
     inkscape:window-width="1920"
     inkscape:window-height="1137"
     inkscape:window-x="-8"
     inkscape:window-y="-8"
     inkscape:window-maximized="1"
     inkscape:current-layer="layer1" /><defs
     id="defs1" /><g
     inkscape:label="Layer 1"
     inkscape:groupmode="layer"
     id="layer1"
     transform="translate(-57.374322,-73.020144)"><path
       style="font-style:italic;font-weight:300;font-size:4.93889px;font-family:'DM Sans';-inkscape-font-specification:'DM Sans Light Italic';fill:#b3b3b3;stroke-width:0.264583"
       d="m 104.99731,106.94517 0.61242,-3.45723 h 2.06445 l -0.0543,0.28646 h -1.71874 l -0.22719,1.29399 h 1.48167 l -0.0494,0.28645 h -1.48167 l -0.28151,1.59033 z m 3.46216,0.0593 q -0.34078,0 -0.58773,-0.15804 -0.24694,-0.15804 -0.3556,-0.4445 -0.10865,-0.29139 -0.0395,-0.68157 0.0543,-0.29633 0.18768,-0.5334 0.13335,-0.23706 0.3309,-0.40499 0.19756,-0.16792 0.43463,-0.25682 0.23706,-0.0889 0.49389,-0.0889 0.34572,0 0.58772,0.15805 0.24695,0.15804 0.3556,0.4445 0.10866,0.28645 0.0395,0.68156 -0.0494,0.29634 -0.18768,0.5334 -0.13335,0.23707 -0.33091,0.40499 -0.19755,0.16792 -0.43462,0.25682 -0.23707,0.0889 -0.49389,0.0889 z m 0.0543,-0.29633 q 0.22719,0 0.43956,-0.10865 0.21731,-0.1136 0.38029,-0.33091 0.16299,-0.22225 0.21732,-0.54822 0.0593,-0.3309 -0.0247,-0.54821 -0.084,-0.21732 -0.26176,-0.32597 -0.17286,-0.1136 -0.39511,-0.1136 -0.22225,0 -0.43956,0.1136 -0.21731,0.10865 -0.3803,0.32597 -0.15804,0.21731 -0.21731,0.54821 -0.0543,0.32597 0.0247,0.54822 0.084,0.21731 0.25682,0.33091 0.1778,0.10865 0.40005,0.10865 z m 1.49648,0.23707 0.43462,-2.44969 h 0.31609 l -0.0593,0.47907 h 0.0198 q 0.10866,-0.17286 0.25188,-0.29139 0.14817,-0.11854 0.33585,-0.18274 0.19262,-0.0642 0.41487,-0.0642 l -0.0642,0.36054 h -0.0938 q -0.16792,0 -0.32597,0.0444 -0.15804,0.0395 -0.29139,0.14323 -0.12841,0.0988 -0.22719,0.27164 -0.0938,0.16792 -0.13829,0.4198 l -0.22719,1.2693 z m 3.43747,0 q -0.21237,0 -0.3556,-0.0642 -0.13829,-0.0691 -0.19262,-0.22719 -0.0494,-0.15804 -0.005,-0.42474 l 0.25189,-1.43722 h -0.42475 l 0.0543,-0.29633 h 0.42474 l 0.14817,-0.56797 h 0.29633 l -0.0988,0.56797 h 0.74083 l -0.0543,0.29633 h -0.74083 l -0.25189,1.43722 q -0.0444,0.24694 0.0395,0.33584 0.0889,0.084 0.34078,0.084 h 0.242 l -0.0543,0.29634 z m 0.65193,0 0.61242,-3.45723 h 0.31609 l -0.26176,1.48167 h 0.0198 q 0.18274,-0.26176 0.4198,-0.39511 0.23707,-0.13829 0.52353,-0.13829 0.28645,0 0.47907,0.1136 0.19261,0.11359 0.2667,0.35066 0.079,0.23212 0.0148,0.5976 l -0.25682,1.4471 h -0.34572 l 0.25188,-1.40759 q 0.0692,-0.40499 -0.0691,-0.60254 -0.13335,-0.19756 -0.45438,-0.19756 -0.22225,0 -0.4198,0.10866 -0.19756,0.10865 -0.33585,0.31609 -0.13335,0.20743 -0.18768,0.51364 l -0.22719,1.2693 z m 3.60539,0.0593 q -0.34573,0 -0.58773,-0.15804 -0.23707,-0.16298 -0.34078,-0.44944 -0.0988,-0.29139 -0.0296,-0.68157 0.0543,-0.29139 0.18274,-0.52846 0.12841,-0.23706 0.31609,-0.40499 0.18768,-0.16792 0.41981,-0.25682 0.23706,-0.0889 0.50376,-0.0889 0.3556,0 0.57785,0.16298 0.22225,0.15805 0.31115,0.41487 0.0889,0.25682 0.0346,0.55316 -0.005,0.0494 -0.0148,0.10371 -0.01,0.0543 -0.0296,0.12348 h -2.04963 l 0.0543,-0.29634 h 1.71874 q 0.0346,-0.242 -0.0444,-0.40993 -0.079,-0.17286 -0.24201,-0.26176 -0.15804,-0.0938 -0.38523,-0.0938 -0.22225,0 -0.43462,0.0988 -0.20744,0.0988 -0.36054,0.2914 -0.14817,0.18767 -0.19756,0.46919 l -0.0247,0.13335 q -0.0593,0.33091 0.0247,0.55316 0.0889,0.21731 0.26176,0.32596 0.1778,0.10372 0.39017,0.10372 0.27658,0 0.48402,-0.12841 0.20743,-0.12841 0.3309,-0.3556 h 0.33585 q -0.0988,0.22225 -0.27658,0.40005 -0.17286,0.1778 -0.40993,0.28152 -0.23213,0.0988 -0.51858,0.0988 z m 4.03507,0 q -0.50377,0 -0.83467,-0.22225 -0.32597,-0.22718 -0.45438,-0.62723 -0.12841,-0.40499 -0.0346,-0.93839 0.0691,-0.40005 0.242,-0.72602 0.17287,-0.32597 0.42969,-0.56303 0.25682,-0.24201 0.58279,-0.37042 0.32596,-0.12841 0.70132,-0.12841 0.58773,0 0.89888,0.27658 0.31115,0.27163 0.3309,0.77046 h -0.38523 q -0.0198,-0.33584 -0.24201,-0.53834 -0.21731,-0.20743 -0.65687,-0.20743 -0.29139,0 -0.54822,0.10372 -0.25188,0.0988 -0.45437,0.29139 -0.2025,0.19262 -0.34573,0.4692 -0.13828,0.27163 -0.19755,0.6223 -0.079,0.46425 0.0198,0.8001 0.0988,0.3309 0.3556,0.5087 0.26177,0.1778 0.647,0.1778 0.43956,0 0.73095,-0.20249 0.2914,-0.2025 0.42969,-0.5334 h 0.38523 q -0.12841,0.32596 -0.3556,0.55809 -0.22719,0.23213 -0.54328,0.3556 -0.31115,0.12347 -0.70132,0.12347 z m 2.92382,0 q -0.34078,0 -0.58773,-0.15804 -0.24694,-0.15804 -0.3556,-0.4445 -0.10865,-0.29139 -0.0395,-0.68157 0.0543,-0.29633 0.18768,-0.5334 0.13335,-0.23706 0.3309,-0.40499 0.19756,-0.16792 0.43463,-0.25682 0.23706,-0.0889 0.49388,-0.0889 0.34573,0 0.58773,0.15805 0.24695,0.15804 0.3556,0.4445 0.10866,0.28645 0.0395,0.68156 -0.0494,0.29634 -0.18767,0.5334 -0.13335,0.23707 -0.33091,0.40499 -0.19756,0.16792 -0.43462,0.25682 -0.23707,0.0889 -0.49389,0.0889 z m 0.0543,-0.29633 q 0.22719,0 0.43956,-0.10865 0.21731,-0.1136 0.38029,-0.33091 0.16299,-0.22225 0.21731,-0.54822 0.0593,-0.3309 -0.0247,-0.54821 -0.084,-0.21732 -0.26176,-0.32597 -0.17286,-0.1136 -0.39511,-0.1136 -0.22225,0 -0.43956,0.1136 -0.21732,0.10865 -0.3803,0.32597 -0.15804,0.21731 -0.21731,0.54821 -0.0543,0.32597 0.0247,0.54822 0.084,0.21731 0.25683,0.33091 0.1778,0.10865 0.40005,0.10865 z m 1.49648,0.23707 0.43462,-2.44969 h 0.31609 l -0.0593,0.47907 h 0.0198 q 0.10866,-0.17286 0.25188,-0.29139 0.14817,-0.11854 0.33585,-0.18274 0.19261,-0.0642 0.41486,-0.0642 l -0.0642,0.36054 h -0.0938 q -0.16792,0 -0.32597,0.0444 -0.15804,0.0395 -0.29139,0.14323 -0.12841,0.0988 -0.22719,0.27164 -0.0938,0.16792 -0.13829,0.4198 l -0.22719,1.2693 z m 1.37301,0.98778 0.60254,-3.43747 h 0.31609 l -0.0543,0.5334 h 0.0198 q 0.10865,-0.16299 0.25682,-0.29634 0.14817,-0.13335 0.34078,-0.21237 0.19756,-0.084 0.43957,-0.084 0.35066,0 0.58278,0.16792 0.23707,0.16793 0.33585,0.45932 0.0988,0.29139 0.0296,0.66181 -0.0494,0.27658 -0.1778,0.51365 -0.12347,0.23212 -0.31609,0.40499 -0.18767,0.17286 -0.42968,0.2667 -0.23707,0.0938 -0.51858,0.0938 -0.20744,0 -0.37536,-0.0593 -0.16792,-0.0593 -0.28645,-0.16792 -0.1136,-0.1136 -0.17287,-0.2667 l -0.24694,1.4224 z m 1.46191,-1.22979 q 0.26176,0 0.47907,-0.12347 0.22225,-0.12347 0.37536,-0.34078 0.1531,-0.22225 0.20743,-0.51859 0.0543,-0.29633 -0.0247,-0.51858 -0.0741,-0.22225 -0.25189,-0.34078 -0.17286,-0.12348 -0.43462,-0.12348 -0.25682,0 -0.47907,0.12348 -0.22225,0.11853 -0.37536,0.34078 -0.14816,0.22225 -0.20249,0.51858 -0.0543,0.29634 0.0197,0.51859 0.0741,0.21731 0.25189,0.34078 0.1778,0.12347 0.43462,0.12347 z m 2.42993,0.30127 q -0.28645,0 -0.49389,-0.0988 -0.20743,-0.0988 -0.31608,-0.28152 -0.10866,-0.18274 -0.0988,-0.43956 h 0.33584 q 0,0.16792 0.0741,0.28645 0.0741,0.1136 0.21731,0.17287 0.14322,0.0543 0.34572,0.0543 0.18768,0 0.31609,-0.0543 0.12841,-0.0543 0.20249,-0.14817 0.079,-0.0938 0.0988,-0.20743 0.0296,-0.15805 -0.0346,-0.24201 -0.0593,-0.0889 -0.19756,-0.13335 -0.13335,-0.0445 -0.3309,-0.084 -0.13829,-0.0296 -0.28152,-0.079 -0.13829,-0.0543 -0.24694,-0.13829 -0.10866,-0.084 -0.16793,-0.20744 -0.0543,-0.12347 -0.0247,-0.28645 0.0395,-0.21237 0.17286,-0.36054 0.13335,-0.15311 0.34078,-0.23707 0.21238,-0.084 0.47414,-0.084 0.37535,0 0.58279,0.19262 0.21237,0.18768 0.18767,0.55315 h -0.34572 q 0.0148,-0.20249 -0.11359,-0.32102 -0.12348,-0.11854 -0.37536,-0.11854 -0.23707,0 -0.38523,0.10372 -0.14323,0.0988 -0.17286,0.27164 -0.0198,0.10371 0.0395,0.1778 0.0593,0.0741 0.18274,0.12841 0.12347,0.0543 0.30127,0.0938 0.15804,0.0346 0.30621,0.084 0.15311,0.0445 0.26176,0.12347 0.1136,0.0741 0.16792,0.2025 0.0543,0.12841 0.0198,0.32596 -0.0346,0.21731 -0.1778,0.39018 -0.14323,0.16792 -0.36548,0.2667 -0.21731,0.0938 -0.49883,0.0938 z m 0.96308,0.54822 0.47908,-1.04704 h 0.37041 l -0.60254,1.04704 z m 3.36833,-0.54822 q -0.24201,0 -0.41487,-0.079 -0.17286,-0.079 -0.28151,-0.20743 -0.10372,-0.12841 -0.14817,-0.28152 h -0.0198 l -0.13335,0.50871 h -0.31609 l 0.61243,-3.45723 h 0.34572 l -0.25682,1.44216 q 0.16792,-0.23213 0.42968,-0.36054 0.26176,-0.13335 0.57785,-0.13335 0.37042,0 0.61242,0.16792 0.24695,0.16299 0.34572,0.45438 0.10372,0.28646 0.0346,0.65687 -0.0445,0.27164 -0.16793,0.50871 -0.12347,0.23213 -0.31115,0.40993 -0.18273,0.17286 -0.41486,0.27164 -0.23213,0.0988 -0.49389,0.0988 z m 0,-0.30127 q 0.26176,0 0.47413,-0.12347 0.21731,-0.12347 0.36548,-0.34572 0.14817,-0.22225 0.19756,-0.51859 0.0543,-0.30621 -0.0198,-0.52352 -0.0741,-0.22225 -0.25188,-0.33584 -0.1778,-0.11854 -0.43956,-0.11854 -0.25683,0 -0.47908,0.11854 -0.22225,0.11359 -0.37535,0.33584 -0.14817,0.21731 -0.2025,0.52352 -0.0494,0.29634 0.0296,0.51859 0.079,0.22225 0.26176,0.34572 0.18274,0.12347 0.43956,0.12347 z m 1.57551,1.22979 0.8001,-1.26436 h -0.10372 l -0.64205,-2.17311 h 0.35066 l 0.54327,1.91629 h 0.0198 l 1.20015,-1.91629 h 0.37042 l -2.17805,3.43747 z m 4.24745,-0.98778 q -0.21237,0 -0.3556,-0.0642 -0.13829,-0.0691 -0.19262,-0.22719 -0.0494,-0.15804 -0.005,-0.42474 l 0.25189,-1.43722 h -0.42475 l 0.0543,-0.29633 h 0.42474 l 0.14817,-0.56797 h 0.29633 l -0.0988,0.56797 h 0.74083 l -0.0543,0.29633 h -0.74083 l -0.25188,1.43722 q -0.0445,0.24694 0.0395,0.33584 0.0889,0.084 0.34078,0.084 h 0.24201 l -0.0543,0.29634 z m 0.65193,0 0.61242,-3.45723 h 0.31609 l -0.26176,1.48167 h 0.0198 q 0.18274,-0.26176 0.4198,-0.39511 0.23707,-0.13829 0.52353,-0.13829 0.28645,0 0.47907,0.1136 0.19261,0.11359 0.2667,0.35066 0.079,0.23212 0.0148,0.5976 l -0.25682,1.4471 h -0.34572 l 0.25188,-1.40759 q 0.0692,-0.40499 -0.0691,-0.60254 -0.13335,-0.19756 -0.45438,-0.19756 -0.22225,0 -0.4198,0.10866 -0.19756,0.10865 -0.33585,0.31609 -0.13335,0.20743 -0.18768,0.51364 l -0.22719,1.2693 z m 3.60539,0.0593 q -0.34573,0 -0.58773,-0.15804 -0.23707,-0.16298 -0.34079,-0.44944 -0.0988,-0.29139 -0.0296,-0.68157 0.0543,-0.29139 0.18274,-0.52846 0.12841,-0.23706 0.31609,-0.40499 0.18768,-0.16792 0.4198,-0.25682 0.23707,-0.0889 0.50377,-0.0889 0.3556,0 0.57785,0.16298 0.22225,0.15805 0.31115,0.41487 0.0889,0.25682 0.0346,0.55316 -0.005,0.0494 -0.0148,0.10371 -0.01,0.0543 -0.0296,0.12348 h -2.04964 l 0.0543,-0.29634 h 1.71874 q 0.0346,-0.242 -0.0444,-0.40993 -0.079,-0.17286 -0.24201,-0.26176 -0.15804,-0.0938 -0.38523,-0.0938 -0.22225,0 -0.43463,0.0988 -0.20743,0.0988 -0.36054,0.2914 -0.14816,0.18767 -0.19755,0.46919 l -0.0247,0.13335 q -0.0593,0.33091 0.0247,0.55316 0.0889,0.21731 0.26176,0.32596 0.1778,0.10372 0.39017,0.10372 0.27658,0 0.48401,-0.12841 0.20744,-0.12841 0.33091,-0.3556 h 0.33584 q -0.0988,0.22225 -0.27657,0.40005 -0.17286,0.1778 -0.40993,0.28152 -0.23213,0.0988 -0.51858,0.0988 z m 4.03507,0 q -0.50377,0 -0.83467,-0.22225 -0.32597,-0.22718 -0.45438,-0.62723 -0.12841,-0.40499 -0.0346,-0.93839 0.0691,-0.40005 0.242,-0.72602 0.17286,-0.32597 0.42969,-0.56303 0.25682,-0.24201 0.58278,-0.37042 0.32597,-0.12841 0.70133,-0.12841 0.58772,0 0.89887,0.27658 0.31116,0.27163 0.33091,0.77046 h -0.38523 q -0.0198,-0.33584 -0.24201,-0.53834 -0.21731,-0.20743 -0.65687,-0.20743 -0.2914,0 -0.54822,0.10372 -0.25188,0.0988 -0.45438,0.29139 -0.20249,0.19262 -0.34572,0.4692 -0.13829,0.27163 -0.19755,0.6223 -0.079,0.46425 0.0198,0.8001 0.0988,0.3309 0.3556,0.5087 0.26176,0.1778 0.647,0.1778 0.43956,0 0.73095,-0.20249 0.2914,-0.2025 0.42969,-0.5334 h 0.38523 q -0.12841,0.32596 -0.3556,0.55809 -0.22719,0.23213 -0.54328,0.3556 -0.31115,0.12347 -0.70132,0.12347 z m 2.92382,0 q -0.34078,0 -0.58773,-0.15804 -0.24694,-0.15804 -0.3556,-0.4445 -0.10865,-0.29139 -0.0395,-0.68157 0.0543,-0.29633 0.18768,-0.5334 0.13335,-0.23706 0.3309,-0.40499 0.19756,-0.16792 0.43463,-0.25682 0.23706,-0.0889 0.49389,-0.0889 0.34572,0 0.58772,0.15805 0.24695,0.15804 0.3556,0.4445 0.10866,0.28645 0.0395,0.68156 -0.0494,0.29634 -0.18767,0.5334 -0.13335,0.23707 -0.33091,0.40499 -0.19755,0.16792 -0.43462,0.25682 -0.23707,0.0889 -0.49389,0.0889 z m 0.0543,-0.29633 q 0.22719,0 0.43956,-0.10865 0.21731,-0.1136 0.38029,-0.33091 0.16299,-0.22225 0.21731,-0.54822 0.0593,-0.3309 -0.0247,-0.54821 -0.084,-0.21732 -0.26176,-0.32597 -0.17286,-0.1136 -0.39511,-0.1136 -0.22225,0 -0.43956,0.1136 -0.21731,0.10865 -0.3803,0.32597 -0.15804,0.21731 -0.21731,0.54821 -0.0543,0.32597 0.0247,0.54822 0.084,0.21731 0.25682,0.33091 0.1778,0.10865 0.40005,0.10865 z m 1.49648,0.23707 0.43462,-2.44969 h 0.31609 l -0.0593,0.47907 h 0.0198 q 0.10865,-0.17286 0.25188,-0.29139 0.14817,-0.11854 0.33585,-0.18274 0.19261,-0.0642 0.41486,-0.0642 l -0.0642,0.36054 h -0.0938 q -0.16792,0 -0.32597,0.0444 -0.15804,0.0395 -0.29139,0.14323 -0.12841,0.0988 -0.22719,0.27164 -0.0938,0.16792 -0.13829,0.4198 l -0.22719,1.2693 z m 1.37301,0.98778 0.60254,-3.43747 h 0.31609 l -0.0543,0.5334 h 0.0198 q 0.10865,-0.16299 0.25682,-0.29634 0.14817,-0.13335 0.34078,-0.21237 0.19756,-0.084 0.43956,-0.084 0.35067,0 0.58279,0.16792 0.23707,0.16793 0.33585,0.45932 0.0988,0.29139 0.0296,0.66181 -0.0494,0.27658 -0.1778,0.51365 -0.12347,0.23212 -0.31609,0.40499 -0.18768,0.17286 -0.42968,0.2667 -0.23707,0.0938 -0.51858,0.0938 -0.20744,0 -0.37536,-0.0593 -0.16792,-0.0593 -0.28646,-0.16792 -0.11359,-0.1136 -0.17286,-0.2667 l -0.24694,1.4224 z m 1.46191,-1.22979 q 0.26176,0 0.47907,-0.12347 0.22225,-0.12347 0.37536,-0.34078 0.1531,-0.22225 0.20743,-0.51859 0.0543,-0.29633 -0.0247,-0.51858 -0.0741,-0.22225 -0.25188,-0.34078 -0.17286,-0.12348 -0.43462,-0.12348 -0.25682,0 -0.47907,0.12348 -0.22225,0.11853 -0.37536,0.34078 -0.14817,0.22225 -0.20249,0.51858 -0.0543,0.29634 0.0198,0.51859 0.0741,0.21731 0.25189,0.34078 0.1778,0.12347 0.43462,0.12347 z m 2.42993,0.30127 q -0.28646,0 -0.49389,-0.0988 -0.20743,-0.0988 -0.31609,-0.28152 -0.10865,-0.18274 -0.0988,-0.43956 h 0.33585 q 0,0.16792 0.0741,0.28645 0.0741,0.1136 0.21731,0.17287 0.14323,0.0543 0.34573,0.0543 0.18767,0 0.31609,-0.0543 0.12841,-0.0543 0.20249,-0.14817 0.079,-0.0938 0.0988,-0.20743 0.0296,-0.15805 -0.0346,-0.24201 -0.0593,-0.0889 -0.19756,-0.13335 -0.13335,-0.0445 -0.33091,-0.084 -0.13828,-0.0296 -0.28151,-0.079 -0.13829,-0.0543 -0.24695,-0.13829 -0.10865,-0.084 -0.16792,-0.20744 -0.0543,-0.12347 -0.0247,-0.28645 0.0395,-0.21237 0.17286,-0.36054 0.13335,-0.15311 0.34078,-0.23707 0.21237,-0.084 0.47413,-0.084 0.37536,0 0.58279,0.19262 0.21238,0.18768 0.18768,0.55315 h -0.34572 q 0.0148,-0.20249 -0.1136,-0.32102 -0.12347,-0.11854 -0.37535,-0.11854 -0.23707,0 -0.38523,0.10372 -0.14323,0.0988 -0.17287,0.27164 -0.0198,0.10371 0.0395,0.1778 0.0593,0.0741 0.18273,0.12841 0.12348,0.0543 0.30128,0.0938 0.15804,0.0346 0.30621,0.084 0.1531,0.0445 0.26176,0.12347 0.11359,0.0741 0.16792,0.2025 0.0543,0.12841 0.0198,0.32596 -0.0346,0.21731 -0.1778,0.39018 -0.14323,0.16792 -0.36548,0.2667 -0.21731,0.0938 -0.49883,0.0938 z"
       id="text10"
       aria-label="For the Corps, by the Corps" /><g
       id="g8"
       transform="matrix(0.466519,0,0,0.466519,37.589065,20.362223)"><path
         id="path3"
         style="fill:#000000;stroke-width:0.95136"
         inkscape:transform-center-x="1.416028"
         inkscape:transform-center-y="2.3226043"
         d="m 56.192527,130.17087 c 0.944006,2.26428 1.887913,4.52833 2.831491,6.79278 -0.920109,1.83515 -1.897965,3.65479 -2.520943,5.52691 -2.231182,0.81411 -4.669193,1.12024 -6.717536,2.38686 -0.79575,1.12389 -0.402462,2.58532 -0.619936,3.86444 -0.01329,0.30779 -0.02644,0.61613 -0.04022,0.92389 0.06403,1.01328 -0.347131,2.35827 0.640937,3.04021 1.76043,1.17137 3.861626,1.66185 5.744437,2.55955 0.848561,0.6855 0.761911,1.90545 1.230848,2.81689 0.377318,1.03596 0.800998,2.0546 1.201241,3.08183 -1.135677,2.15475 -2.268842,4.30989 -3.403805,6.46501 1.656893,1.7576 3.693907,4.34495 5.696014,5.73764 1.251347,-0.51593 2.39601,-1.03622 3.850832,-1.55123 0.896667,-0.37473 1.792155,-0.75125 2.689414,-1.1246 1.661043,1.06456 3.582864,1.83461 5.459083,2.58877 0.669145,2.17461 1.264489,4.32652 2.027674,6.44361 1.225243,0.90156 2.84789,0.67961 4.27346,0.91568 1.322977,0.0818 2.656572,0.0174 3.962695,-0.2115 0.899219,-2.20687 1.762908,-4.43006 2.794278,-6.57988 1.865233,-0.64763 3.776208,-1.18863 5.550724,-2.06931 2.142838,0.96271 4.060474,2.44317 6.361564,3.03341 1.371729,-0.1737 2.147954,-1.48154 3.188491,-2.24357 0.86874,-0.86308 2.01595,-1.59076 2.47871,-2.75846 0.0113,-1.63966 -1.02555,-3.0241 -1.51221,-4.53741 -0.30401,-0.71317 -0.60705,-1.42728 -0.91188,-2.14013 0.93258,-1.8178 1.90327,-3.63283 2.49231,-5.59835 2.40289,-0.71477 4.82005,-1.39248 7.162,-2.29301 0.0374,-1.47203 -0.15412,-3.43379 -0.18792,-5.15333 -0.31734,-0.7525 -11.692995,1.71541 -14.403189,2.39128 -0.655037,2.51808 -1.387004,5.01518 -3.322761,7.18399 -3.3431,4.20652 -8.877673,6.68365 -14.25193,5.95675 -3.965902,-0.41408 -7.695794,-2.47236 -10.207199,-5.56315 -2.378544,-2.76327 -3.785243,-6.37561 -3.701344,-10.03829 -0.05618,-4.70924 2.208425,-9.35987 5.934736,-12.23847 1.132826,-0.95352 2.406068,-1.73118 3.754782,-2.33924 1.211574,-0.71804 4.305676,-1.11563 5.026846,-1.46498 0.451576,-1.70522 2.341401,-9.55082 2.815891,-14.2363 -2.18433,-0.0717 -2.847856,-0.16954 -4.286868,-0.23033 -0.603493,0.4632 -0.644717,1.34985 -1.029143,1.98163 -0.661594,1.54749 -1.272689,3.11632 -1.905197,4.67588 -1.930509,0.58603 -3.878981,1.16471 -5.677597,2.09612 -2.189979,-1.03412 -4.208536,-2.49943 -6.593887,-3.06802 -0.612883,0.14926 -1.092809,0.52148 -1.542416,0.94369 l 2.27e-4,-0.002 c -0.448921,0.4229 -0.869749,0.89535 -1.36014,1.24644 -0.998176,0.92166 -1.988729,1.8507 -2.972376,2.78788 z"
         sodipodi:nodetypes="ccccccccccccccccccccccccccccccccccccccccccccccc" /><path
         id="path4"
         style="fill:#ffdf00;fill-opacity:1;stroke-width:0.858715"
         d="m 93.247945,115.45332 c -4.298014,0.85248 -8.594324,8.04587 -8.594324,8.04587 l 7.065404,7.1231 c 0,0 -13.487557,13.1583 -20.286333,20.17008 -2.859093,2.85771 -2.604224,2.42946 -2.073427,3.90694 0.530756,1.47745 3.190981,4.22202 5.462138,5.53445 1.984797,1.1469 1.615287,1.21972 4.566005,-1.81362 5.709537,-6.00441 20.349945,-19.84394 20.384195,-19.82492 l 7.947687,7.77365 c 6.15326,-8.21792 3.78448,-12.16846 1.12566,-15.67026 -6.32094,-6.52079 -10.011045,-10.58789 -15.597019,-15.2453 z"
         sodipodi:nodetypes="cccczsccccc" /></g><g
       id="text1"
       style="font-size:19.7556px;font-family:'DM Sans';-inkscape-font-specification:'DM Sans';fill:#6d3030;stroke-width:0.264583"
       aria-label="CorpsTools"><path
         style="font-weight:600;-inkscape-font-specification:'DM Sans Semi-Bold';fill:#000000"
         d="m 100.3117,96.765624 c -1.36972,0 -2.555055,-0.296334 -3.556006,-0.889002 -1.00095,-0.605839 -1.771418,-1.442159 -2.311405,-2.508961 -0.539987,-1.079973 -0.80998,-2.324576 -0.80998,-3.733809 0,-1.422403 0.269993,-2.667005 0.80998,-3.733808 0.539987,-1.079973 1.310455,-1.922878 2.311405,-2.528717 1.000951,-0.605838 2.186286,-0.908757 3.556006,-0.908757 1.65947,0 3.00944,0.408282 4.0499,1.224847 1.05363,0.803394 1.71215,1.942634 1.97556,3.417719 h -2.60774 c -0.17121,-0.777054 -0.54657,-1.382893 -1.12607,-1.817516 -0.56633,-0.447793 -1.33021,-0.67169 -2.29165,-0.67169 -0.882415,0 -1.646298,0.204141 -2.291647,0.612424 -0.632179,0.395112 -1.119484,0.968024 -1.461915,1.718737 -0.34243,0.750713 -0.513645,1.6463 -0.513645,2.686761 0,1.027291 0.171215,1.916293 0.513645,2.667006 0.342431,0.750713 0.829736,1.330211 1.461915,1.738493 0.645349,0.395112 1.409232,0.592668 2.291647,0.592668 0.96144,0 1.73191,-0.210726 2.31141,-0.632179 0.57949,-0.421453 0.96143,-0.994365 1.14582,-1.718737 h 2.56823 c -0.26341,1.396062 -0.92193,2.49579 -1.97556,3.299185 -1.04046,0.790224 -2.39043,1.185336 -4.0499,1.185336 z m 12.18919,0 c -0.93509,0 -1.778,-0.217312 -2.52871,-0.651935 -0.75071,-0.434623 -1.34997,-1.033876 -1.79776,-1.797759 -0.43463,-0.777054 -0.65194,-1.672641 -0.65194,-2.686762 0,-1.014121 0.21731,-1.909708 0.65194,-2.686762 0.44779,-0.777053 1.04705,-1.376306 1.79776,-1.797759 0.76388,-0.434623 1.61337,-0.651935 2.54847,-0.651935 0.94827,0 1.79776,0.217312 2.54847,0.651935 0.75071,0.421453 1.34338,1.020706 1.77801,1.797759 0.44779,0.777054 0.67169,1.672641 0.67169,2.686762 0,1.014121 -0.2239,1.909708 -0.67169,2.686762 -0.43463,0.763883 -1.03388,1.363136 -1.79776,1.797759 -0.75071,0.434623 -1.60021,0.651935 -2.54848,0.651935 z m 0,-1.955804 c 0.47414,0 0.90218,-0.118534 1.28412,-0.355601 0.39511,-0.237067 0.7112,-0.586083 0.94827,-1.047047 0.25023,-0.474135 0.37535,-1.066803 0.37535,-1.778004 0,-0.711201 -0.11853,-1.303869 -0.3556,-1.778004 -0.23707,-0.474135 -0.55316,-0.82315 -0.94827,-1.047047 -0.39511,-0.237067 -0.81656,-0.355601 -1.26435,-0.355601 -0.46097,0 -0.88901,0.118534 -1.28412,0.355601 -0.39511,0.223897 -0.71779,0.572912 -0.96802,1.047047 -0.23707,0.474135 -0.3556,1.066803 -0.3556,1.778004 0,0.711201 0.11853,1.303869 0.3556,1.778004 0.25023,0.460964 0.56632,0.80998 0.94827,1.047047 0.39511,0.237067 0.81656,0.355601 1.26435,0.355601 z m 6.30204,1.718737 v -9.798778 h 2.03482 l 0.0396,1.544817 h 0.079 c 0.30929,-0.422884 0.98685,-0.802594 0.98685,-0.802594 -0.12455,0.03114 0.65633,-0.326309 1.27061,-0.476588 0.43441,-0.106274 0.94169,-0.158045 1.52118,-0.158045 l 0.0144,2.144549 h -0.63218 c -0.47413,0 -0.90217,0.05927 -1.28411,0.1778 -0.36877,0.118533 -0.67828,0.296334 -0.92851,0.533401 -0.23707,0.223897 -0.42145,0.520231 -0.55316,0.889002 -0.11853,0.355601 -0.1778,0.790224 -0.1778,1.30387 v 4.642566 z m 6.93422,3.951123 V 86.729779 h 1.99532 l 0.13829,1.778004 h 0.079 c 0.26341,-0.434623 0.5795,-0.796809 0.94827,-1.086558 0.36877,-0.302919 0.78364,-0.533401 1.2446,-0.691446 0.46097,-0.158045 0.96144,-0.237067 1.50143,-0.237067 0.92193,0 1.72532,0.223897 2.41018,0.67169 0.69803,0.447794 1.23144,1.060218 1.60021,1.837271 0.38194,0.763883 0.57291,1.639715 0.57291,2.627495 0,0.98778 -0.19097,1.870197 -0.57291,2.64725 -0.36877,0.763883 -0.90876,1.369722 -1.61996,1.817516 -0.69803,0.447793 -1.54094,0.67169 -2.52872,0.67169 -0.80339,0 -1.49484,-0.158045 -2.07434,-0.474134 -0.56633,-0.31609 -1.00753,-0.698032 -1.32362,-1.145825 v 5.334015 z m 5.23524,-5.66986 c 0.57949,0 1.07997,-0.131704 1.50142,-0.395112 0.43463,-0.276579 0.77047,-0.651935 1.00754,-1.12607 0.23707,-0.474134 0.3556,-1.027291 0.3556,-1.65947 0,-0.619009 -0.11853,-1.16558 -0.3556,-1.639715 -0.23707,-0.474134 -0.57291,-0.842905 -1.00754,-1.106313 -0.42145,-0.276579 -0.92193,-0.414868 -1.50142,-0.414868 -0.5795,0 -1.08656,0.138289 -1.52118,0.414868 -0.43463,0.263408 -0.77047,0.632179 -1.00754,1.106313 -0.23707,0.474135 -0.3556,1.020706 -0.3556,1.639715 0,0.632179 0.11853,1.185336 0.3556,1.65947 0.23707,0.474135 0.57291,0.849491 1.00754,1.12607 0.43462,0.263408 0.94168,0.395112 1.52118,0.395112 z m 10.56924,1.955804 c -0.84291,0 -1.59362,-0.138289 -2.25214,-0.414868 -0.65852,-0.289749 -1.18534,-0.684861 -1.58045,-1.185336 -0.38194,-0.500475 -0.61242,-1.079972 -0.69144,-1.738492 h 2.37067 c 0.079,0.263408 0.19755,0.513645 0.3556,0.750712 0.17121,0.237067 0.4017,0.434623 0.69145,0.592668 0.28975,0.144875 0.65193,0.217312 1.08655,0.217312 0.38195,0 0.69804,-0.05268 0.94827,-0.158045 0.25024,-0.118533 0.43463,-0.269993 0.55316,-0.454379 0.11853,-0.184385 0.1778,-0.375356 0.1778,-0.572912 0,-0.276579 -0.0856,-0.49389 -0.25682,-0.651935 -0.17121,-0.171215 -0.42145,-0.31609 -0.75071,-0.434623 -0.32926,-0.118533 -0.71779,-0.237067 -1.16559,-0.355601 -0.40828,-0.118533 -0.82973,-0.243652 -1.26435,-0.375356 -0.43463,-0.144875 -0.82974,-0.31609 -1.18534,-0.513646 -0.3556,-0.197556 -0.64535,-0.454379 -0.86925,-0.770468 -0.22389,-0.32926 -0.33584,-0.737542 -0.33584,-1.224847 0,-0.553157 0.15146,-1.053633 0.45438,-1.501426 0.31609,-0.460964 0.76388,-0.82315 1.34338,-1.086558 0.57949,-0.263408 1.27752,-0.395112 2.09409,-0.395112 1.13265,0 2.04141,0.269993 2.72627,0.80998 0.69803,0.526816 1.10632,1.270943 1.22485,2.232382 h -2.25214 c -0.0659,-0.408282 -0.25025,-0.717786 -0.55315,-0.928513 -0.28975,-0.210726 -0.67828,-0.316089 -1.16558,-0.316089 -0.50048,0 -0.88901,0.09878 -1.16558,0.296334 -0.26341,0.197556 -0.39512,0.441208 -0.39512,0.730957 0,0.210726 0.079,0.388526 0.23707,0.533401 0.17121,0.144875 0.41487,0.269993 0.73096,0.375356 0.31609,0.09219 0.70461,0.210727 1.16558,0.355601 0.68486,0.184386 1.30387,0.381942 1.85703,0.592668 0.56633,0.210727 1.0207,0.500476 1.36313,0.869247 0.3556,0.355601 0.5334,0.862661 0.5334,1.521181 0.0132,0.605838 -0.14484,1.15241 -0.47413,1.639715 -0.32926,0.487305 -0.79681,0.869246 -1.40265,1.145824 -0.60584,0.276579 -1.32363,0.414868 -2.15336,0.414868 z"
         id="path9"
         sodipodi:nodetypes="sccscssccccscssscsscccssscsccsccsccssccsscsccsccsccccccsccscccsccccccccssccsccsccccscssscscssscssccccccscsscsccscscssccccscscccccccss" /><path
         style="font-weight:600;-inkscape-font-specification:'DM Sans Semi-Bold';fill:#ffdf00"
         d="M 150.13533,96.528557 V 84.61593 h -4.06966 v -1.916293 h 10.49023 v 1.916293 h -4.0499 v 11.912627 z m 10.90848,0.237067 q -1.40265,0 -2.52872,-0.651935 -1.12606,-0.651935 -1.79775,-1.797759 -0.65194,-1.165581 -0.65194,-2.686762 0,-1.521181 0.65194,-2.686762 0.67169,-1.16558 1.79775,-1.797759 1.14583,-0.651935 2.54848,-0.651935 1.4224,0 2.54847,0.651935 1.12607,0.632179 1.778,1.797759 0.67169,1.165581 0.67169,2.686762 0,1.521181 -0.67169,2.686762 -0.65193,1.145824 -1.79776,1.797759 -1.12607,0.651935 -2.54847,0.651935 z m 0,-1.955804 q 0.7112,0 1.28412,-0.355601 0.59266,-0.355601 0.94826,-1.047047 0.37536,-0.711202 0.37536,-1.778004 0,-1.066802 -0.3556,-1.778004 -0.3556,-0.711202 -0.94827,-1.047047 -0.59267,-0.355601 -1.26436,-0.355601 -0.69144,0 -1.28411,0.355601 -0.59267,0.335845 -0.96803,1.047047 -0.3556,0.711202 -0.3556,1.778004 0,1.066802 0.3556,1.778004 0.37536,0.691446 0.94827,1.047047 0.59267,0.355601 1.26436,0.355601 z m 10.98411,1.955804 q -1.40265,0 -2.52872,-0.651935 -1.12607,-0.651935 -1.79776,-1.797759 -0.65193,-1.165581 -0.65193,-2.686762 0,-1.521181 0.65193,-2.686762 0.67169,-1.16558 1.79776,-1.797759 1.14583,-0.651935 2.54848,-0.651935 1.4224,0 2.54847,0.651935 1.12607,0.632179 1.778,1.797759 0.67169,1.165581 0.67169,2.686762 0,1.521181 -0.67169,2.686762 -0.65193,1.145824 -1.79776,1.797759 -1.12607,0.651935 -2.54847,0.651935 z m 0,-1.955804 q 0.7112,0 1.28411,-0.355601 0.59267,-0.355601 0.94827,-1.047047 0.37536,-0.711202 0.37536,-1.778004 0,-1.066802 -0.3556,-1.778004 -0.3556,-0.711202 -0.94827,-1.047047 -0.59267,-0.355601 -1.26436,-0.355601 -0.69145,0 -1.28411,0.355601 -0.59267,0.335845 -0.96803,1.047047 -0.3556,0.711202 -0.3556,1.778004 0,1.066802 0.3556,1.778004 0.37536,0.691446 0.94827,1.047047 0.59267,0.355601 1.26436,0.355601 z m 6.40081,1.718737 v -13.82892 h 2.37067 v 13.82892 z m 8.08002,0.237067 q -1.26436,0 -2.25214,-0.414868 -0.98778,-0.434623 -1.58044,-1.185336 -0.57292,-0.750712 -0.69145,-1.738492 h 2.37067 q 0.11853,0.395112 0.3556,0.750712 0.25682,0.355601 0.69145,0.592668 0.43462,0.217312 1.08656,0.217312 0.57291,0 0.94826,-0.158045 0.37536,-0.1778 0.55316,-0.454379 0.1778,-0.276578 0.1778,-0.572912 0,-0.414868 -0.25682,-0.651935 -0.25682,-0.256823 -0.75071,-0.434623 -0.49389,-0.1778 -1.16558,-0.355601 -0.61243,-0.1778 -1.26436,-0.375356 -0.65194,-0.217312 -1.18534,-0.513646 -0.5334,-0.296334 -0.86924,-0.770468 -0.33585,-0.49389 -0.33585,-1.224847 0,-0.829736 0.45438,-1.501426 0.47413,-0.691446 1.34338,-1.086558 0.86925,-0.395112 2.09409,-0.395112 1.69898,0 2.72628,0.80998 1.04704,0.790224 1.22484,2.232382 h -2.25214 q -0.0988,-0.612423 -0.55315,-0.928513 -0.43463,-0.316089 -1.16558,-0.316089 -0.75072,0 -1.16558,0.296334 -0.39511,0.296334 -0.39511,0.730957 0,0.316089 0.23706,0.533401 0.25683,0.217312 0.73096,0.375356 0.47413,0.13829 1.16558,0.355601 1.02729,0.276579 1.85703,0.592668 0.84949,0.31609 1.36313,0.869247 0.5334,0.533401 0.5334,1.521181 0.0198,0.908757 -0.47413,1.639715 -0.49389,0.730957 -1.40265,1.145824 -0.90876,0.414868 -2.15336,0.414868 z"
         id="path10" /></g></g></svg>
